<svg width="1096" height="409" viewBox="0 0 1096 409" fill="none" xmlns="http://www.w3.org/2000/svg">
<g clip-path="url(#clip0_2_2)">
<line x1="4.5" y1="1.62027e-07" x2="4.49998" y2="409" stroke="#4FD739" stroke-width="7"/>
<line x1="20.5" y1="1.62027e-07" x2="20.5" y2="409" stroke="#4FD739" stroke-width="7"/>
<path d="M82.324 93.18C76.0307 93.18 70.17 92.1573 64.742 90.112C59.3927 87.988 54.712 85.038 50.7 81.262C46.7667 77.4073 43.6987 72.884 41.496 67.692C39.2933 62.5 38.192 56.836 38.192 50.7C38.192 44.564 39.2933 38.9 41.496 33.708C43.6987 28.516 46.806 24.032 50.818 20.256C54.83 16.4013 59.5107 13.4513 64.86 11.406C70.2093 9.282 76.07 8.22 82.442 8.22C89.2073 8.22 95.3827 9.4 100.968 11.76C106.553 14.0413 111.273 17.4633 115.128 22.026L105.216 31.348C102.227 28.1227 98.8833 25.7233 95.186 24.15C91.4887 22.498 87.4767 21.672 83.15 21.672C78.8233 21.672 74.8507 22.38 71.232 23.796C67.692 25.212 64.5847 27.218 61.91 29.814C59.314 32.41 57.2687 35.478 55.774 39.018C54.358 42.558 53.65 46.452 53.65 50.7C53.65 54.948 54.358 58.842 55.774 62.382C57.2687 65.922 59.314 68.99 61.91 71.586C64.5847 74.182 67.692 76.188 71.232 77.604C74.8507 79.02 78.8233 79.728 83.15 79.728C87.4767 79.728 91.4887 78.9413 95.186 77.368C98.8833 75.716 102.227 73.238 105.216 69.934L115.128 79.374C111.273 83.858 106.553 87.28 100.968 89.64C95.3827 92 89.168 93.18 82.324 93.18ZM164.164 28.28C169.199 28.28 173.683 29.2633 177.616 31.23C181.628 33.1967 184.775 36.2253 187.056 40.316C189.338 44.328 190.478 49.52 190.478 55.892V92H175.728V57.78C175.728 52.1947 174.391 48.0253 171.716 45.272C169.12 42.5187 165.462 41.142 160.742 41.142C157.281 41.142 154.213 41.85 151.538 43.266C148.864 44.682 146.779 46.806 145.284 49.638C143.868 52.3913 143.16 55.892 143.16 60.14V92H128.41V4.44399H143.16V45.98L139.974 40.788C142.177 36.776 145.363 33.708 149.532 31.584C153.78 29.3813 158.658 28.28 164.164 28.28ZM248.012 92V79.256L247.186 76.542V54.24C247.186 49.9133 245.888 46.57 243.292 44.21C240.696 41.7713 236.762 40.552 231.492 40.552C227.952 40.552 224.451 41.1027 220.99 42.204C217.607 43.3053 214.736 44.8393 212.376 46.806L206.594 36.068C209.976 33.472 213.988 31.5447 218.63 30.286C223.35 28.9487 228.227 28.28 233.262 28.28C242.387 28.28 249.428 30.4827 254.384 34.888C259.418 39.2147 261.936 45.9407 261.936 55.066V92H248.012ZM228.188 92.826C223.468 92.826 219.338 92.0393 215.798 90.466C212.258 88.814 209.504 86.572 207.538 83.74C205.65 80.8293 204.706 77.5647 204.706 73.946C204.706 70.406 205.532 67.22 207.184 64.388C208.914 61.556 211.707 59.314 215.562 57.662C219.416 56.01 224.53 55.184 230.902 55.184H249.192V64.978H231.964C226.929 64.978 223.546 65.804 221.816 67.456C220.085 69.0293 219.22 70.996 219.22 73.356C219.22 76.0307 220.282 78.1547 222.406 79.728C224.53 81.3013 227.48 82.088 231.256 82.088C234.874 82.088 238.1 81.262 240.932 79.61C243.842 77.958 245.927 75.5193 247.186 72.294L249.664 81.144C248.248 84.8413 245.691 87.7127 241.994 89.758C238.375 91.8033 233.773 92.826 228.188 92.826ZM316.619 28.28C321.654 28.28 326.138 29.2633 330.071 31.23C334.083 33.1967 337.23 36.2253 339.511 40.316C341.793 44.328 342.933 49.52 342.933 55.892V92H328.183V57.78C328.183 52.1947 326.846 48.0253 324.171 45.272C321.575 42.5187 317.917 41.142 313.197 41.142C309.736 41.142 306.668 41.85 303.993 43.266C301.319 44.682 299.234 46.806 297.739 49.638C296.323 52.3913 295.615 55.892 295.615 60.14V92H280.865V28.988H294.907V45.98L292.429 40.788C294.632 36.776 297.818 33.708 301.987 31.584C306.235 29.3813 311.113 28.28 316.619 28.28ZM388.428 92.826C382.371 92.826 376.903 91.4887 372.026 88.814C367.227 86.0607 363.451 82.2847 360.698 77.486C357.945 72.6873 356.568 67.0233 356.568 60.494C356.568 53.9647 357.945 48.3007 360.698 43.502C363.451 38.7033 367.227 34.9667 372.026 32.292C376.903 29.6173 382.371 28.28 388.428 28.28C393.699 28.28 398.419 29.46 402.588 31.82C406.757 34.1013 410.061 37.602 412.5 42.322C414.939 47.042 416.158 53.0993 416.158 60.494C416.158 67.81 414.978 73.8673 412.618 78.666C410.258 83.386 406.993 86.926 402.824 89.286C398.655 91.646 393.856 92.826 388.428 92.826ZM390.198 80.2C393.738 80.2 396.885 79.4133 399.638 77.84C402.47 76.2667 404.712 73.9853 406.364 70.996C408.095 68.0067 408.96 64.506 408.96 60.494C408.96 56.4033 408.095 52.9027 406.364 49.992C404.712 47.0027 402.47 44.7213 399.638 43.148C396.885 41.5747 393.738 40.788 390.198 40.788C386.658 40.788 383.472 41.5747 380.64 43.148C377.887 44.7213 375.645 47.0027 373.914 49.992C372.262 52.9027 371.436 56.4033 371.436 60.494C371.436 64.506 372.262 68.0067 373.914 70.996C375.645 73.9853 377.887 76.2667 380.64 77.84C383.472 79.4133 386.658 80.2 390.198 80.2ZM409.314 92V77.132L409.904 60.376L408.724 43.62V4.44399H423.356V92H409.314ZM442.77 92V28.988H456.812V46.334L455.16 41.26C457.048 37.012 459.998 33.7867 464.01 31.584C468.1 29.3813 473.174 28.28 479.232 28.28V42.322C478.602 42.1647 478.012 42.086 477.462 42.086C476.911 42.0073 476.36 41.968 475.81 41.968C470.224 41.968 465.78 43.62 462.476 46.924C459.172 50.1493 457.52 54.9873 457.52 61.438V92H442.77ZM526.072 92V79.256L525.246 76.542V54.24C525.246 49.9133 523.948 46.57 521.352 44.21C518.756 41.7713 514.823 40.552 509.552 40.552C506.012 40.552 502.512 41.1027 499.05 42.204C495.668 43.3053 492.796 44.8393 490.436 46.806L484.654 36.068C488.037 33.472 492.049 31.5447 496.69 30.286C501.41 28.9487 506.288 28.28 511.322 28.28C520.448 28.28 527.488 30.4827 532.444 34.888C537.479 39.2147 539.996 45.9407 539.996 55.066V92H526.072ZM506.248 92.826C501.528 92.826 497.398 92.0393 493.858 90.466C490.318 88.814 487.565 86.572 485.598 83.74C483.71 80.8293 482.766 77.5647 482.766 73.946C482.766 70.406 483.592 67.22 485.244 64.388C486.975 61.556 489.768 59.314 493.622 57.662C497.477 56.01 502.59 55.184 508.962 55.184H527.252V64.978H510.024C504.99 64.978 501.607 65.804 499.876 67.456C498.146 69.0293 497.28 70.996 497.28 73.356C497.28 76.0307 498.342 78.1547 500.466 79.728C502.59 81.3013 505.54 82.088 509.316 82.088C512.935 82.088 516.16 81.262 518.992 79.61C521.903 77.958 523.988 75.5193 525.246 72.294L527.724 81.144C526.308 84.8413 523.752 87.7127 520.054 89.758C516.436 91.8033 511.834 92.826 506.248 92.826ZM593.854 92.826C588.505 92.826 583.745 91.646 579.576 89.286C575.407 86.926 572.103 83.386 569.664 78.666C567.304 73.8673 566.124 67.81 566.124 60.494C566.124 53.0993 567.343 47.042 569.782 42.322C572.299 37.602 575.643 34.1013 579.812 31.82C584.06 29.46 588.741 28.28 593.854 28.28C600.069 28.28 605.536 29.6173 610.256 32.292C615.055 34.9667 618.831 38.7033 621.584 43.502C624.416 48.3007 625.832 53.9647 625.832 60.494C625.832 67.0233 624.416 72.6873 621.584 77.486C618.831 82.2847 615.055 86.0607 610.256 88.814C605.536 91.4887 600.069 92.826 593.854 92.826ZM558.926 92V4.44399H573.676V43.62L572.496 60.376L572.968 77.132V92H558.926ZM592.202 80.2C595.742 80.2 598.889 79.4133 601.642 77.84C604.474 76.2667 606.716 73.9853 608.368 70.996C610.02 68.0067 610.846 64.506 610.846 60.494C610.846 56.4033 610.02 52.9027 608.368 49.992C606.716 47.0027 604.474 44.7213 601.642 43.148C598.889 41.5747 595.742 40.788 592.202 40.788C588.662 40.788 585.476 41.5747 582.644 43.148C579.812 44.7213 577.57 47.0027 575.918 49.992C574.266 52.9027 573.44 56.4033 573.44 60.494C573.44 64.506 574.266 68.0067 575.918 70.996C577.57 73.9853 579.812 76.2667 582.644 77.84C585.476 79.4133 588.662 80.2 592.202 80.2ZM677.836 92V79.256L677.01 76.542V54.24C677.01 49.9133 675.712 46.57 673.116 44.21C670.52 41.7713 666.587 40.552 661.316 40.552C657.776 40.552 654.275 41.1027 650.814 42.204C647.431 43.3053 644.56 44.8393 642.2 46.806L636.418 36.068C639.801 33.472 643.813 31.5447 648.454 30.286C653.174 28.9487 658.051 28.28 663.086 28.28C672.211 28.28 679.252 30.4827 684.208 34.888C689.243 39.2147 691.76 45.9407 691.76 55.066V92H677.836ZM658.012 92.826C653.292 92.826 649.162 92.0393 645.622 90.466C642.082 88.814 639.329 86.572 637.362 83.74C635.474 80.8293 634.53 77.5647 634.53 73.946C634.53 70.406 635.356 67.22 637.008 64.388C638.739 61.556 641.531 59.314 645.386 57.662C649.241 56.01 654.354 55.184 660.726 55.184H679.016V64.978H661.788C656.753 64.978 653.371 65.804 651.64 67.456C649.909 69.0293 649.044 70.996 649.044 73.356C649.044 76.0307 650.106 78.1547 652.23 79.728C654.354 81.3013 657.304 82.088 661.08 82.088C664.699 82.088 667.924 81.262 670.756 79.61C673.667 77.958 675.751 75.5193 677.01 72.294L679.488 81.144C678.072 84.8413 675.515 87.7127 671.818 89.758C668.199 91.8033 663.597 92.826 658.012 92.826ZM710.69 92V4.44399H725.44V92H710.69ZM783.621 92V79.256L782.795 76.542V54.24C782.795 49.9133 781.497 46.57 778.901 44.21C776.305 41.7713 772.372 40.552 767.101 40.552C763.561 40.552 760.06 41.1027 756.599 42.204C753.216 43.3053 750.345 44.8393 747.985 46.806L742.203 36.068C745.586 33.472 749.598 31.5447 754.239 30.286C758.959 28.9487 763.836 28.28 768.871 28.28C777.996 28.28 785.037 30.4827 789.993 34.888C795.028 39.2147 797.545 45.9407 797.545 55.066V92H783.621ZM763.797 92.826C759.077 92.826 754.947 92.0393 751.407 90.466C747.867 88.814 745.114 86.572 743.147 83.74C741.259 80.8293 740.315 77.5647 740.315 73.946C740.315 70.406 741.141 67.22 742.793 64.388C744.524 61.556 747.316 59.314 751.171 57.662C755.026 56.01 760.139 55.184 766.511 55.184H784.801V64.978H767.573C762.538 64.978 759.156 65.804 757.425 67.456C755.694 69.0293 754.829 70.996 754.829 73.356C754.829 76.0307 755.891 78.1547 758.015 79.728C760.139 81.3013 763.089 82.088 766.865 82.088C770.484 82.088 773.709 81.262 776.541 79.61C779.452 77.958 781.536 75.5193 782.795 72.294L785.273 81.144C783.857 84.8413 781.3 87.7127 777.603 89.758C773.984 91.8033 769.382 92.826 763.797 92.826ZM32.41 236L69.58 153.4H84.684L121.972 236H105.924L73.946 161.542H80.082L48.222 236H32.41ZM49.52 216.884L53.65 204.848H98.254L102.384 216.884H49.52ZM157.153 236.826C151.095 236.826 145.628 235.489 140.751 232.814C135.952 230.061 132.176 226.285 129.423 221.486C126.669 216.687 125.293 211.023 125.293 204.494C125.293 197.965 126.669 192.301 129.423 187.502C132.176 182.703 135.952 178.967 140.751 176.292C145.628 173.617 151.095 172.28 157.153 172.28C162.423 172.28 167.143 173.46 171.313 175.82C175.482 178.101 178.786 181.602 181.225 186.322C183.663 191.042 184.883 197.099 184.883 204.494C184.883 211.81 183.703 217.867 181.343 222.666C178.983 227.386 175.718 230.926 171.549 233.286C167.379 235.646 162.581 236.826 157.153 236.826ZM158.923 224.2C162.463 224.2 165.609 223.413 168.363 221.84C171.195 220.267 173.437 217.985 175.089 214.996C176.819 212.007 177.685 208.506 177.685 204.494C177.685 200.403 176.819 196.903 175.089 193.992C173.437 191.003 171.195 188.721 168.363 187.148C165.609 185.575 162.463 184.788 158.923 184.788C155.383 184.788 152.197 185.575 149.365 187.148C146.611 188.721 144.369 191.003 142.639 193.992C140.987 196.903 140.161 200.403 140.161 204.494C140.161 208.506 140.987 212.007 142.639 214.996C144.369 217.985 146.611 220.267 149.365 221.84C152.197 223.413 155.383 224.2 158.923 224.2ZM178.039 236V221.132L178.629 204.376L177.449 187.62V148.444H192.081V236H178.039ZM228.25 236L201.228 172.988H216.568L239.814 228.566H232.262L256.334 172.988H270.494L243.472 236H228.25ZM316.576 236V223.256L315.75 220.542V198.24C315.75 193.913 314.452 190.57 311.856 188.21C309.26 185.771 305.327 184.552 300.056 184.552C296.516 184.552 293.015 185.103 289.554 186.204C286.171 187.305 283.3 188.839 280.94 190.806L275.158 180.068C278.541 177.472 282.553 175.545 287.194 174.286C291.914 172.949 296.791 172.28 301.826 172.28C310.951 172.28 317.992 174.483 322.948 178.888C327.983 183.215 330.5 189.941 330.5 199.066V236H316.576ZM296.752 236.826C292.032 236.826 287.902 236.039 284.362 234.466C280.822 232.814 278.069 230.572 276.102 227.74C274.214 224.829 273.27 221.565 273.27 217.946C273.27 214.406 274.096 211.22 275.748 208.388C277.479 205.556 280.271 203.314 284.126 201.662C287.981 200.01 293.094 199.184 299.466 199.184H317.756V208.978H300.528C295.493 208.978 292.111 209.804 290.38 211.456C288.649 213.029 287.784 214.996 287.784 217.356C287.784 220.031 288.846 222.155 290.97 223.728C293.094 225.301 296.044 226.088 299.82 226.088C303.439 226.088 306.664 225.262 309.496 223.61C312.407 221.958 314.491 219.519 315.75 216.294L318.228 225.144C316.812 228.841 314.255 231.713 310.558 233.758C306.939 235.803 302.337 236.826 296.752 236.826ZM385.184 172.28C390.219 172.28 394.703 173.263 398.636 175.23C402.648 177.197 405.795 180.225 408.076 184.316C410.357 188.328 411.498 193.52 411.498 199.892V236H396.748V201.78C396.748 196.195 395.411 192.025 392.736 189.272C390.14 186.519 386.482 185.142 381.762 185.142C378.301 185.142 375.233 185.85 372.558 187.266C369.883 188.682 367.799 190.806 366.304 193.638C364.888 196.391 364.18 199.892 364.18 204.14V236H349.43V172.988H363.472V189.98L360.994 184.788C363.197 180.776 366.383 177.708 370.552 175.584C374.8 173.381 379.677 172.28 385.184 172.28ZM459.234 236.826C452.626 236.826 446.726 235.449 441.534 232.696C436.421 229.864 432.409 226.009 429.498 221.132C426.588 216.255 425.132 210.709 425.132 204.494C425.132 198.201 426.588 192.655 429.498 187.856C432.409 182.979 436.421 179.163 441.534 176.41C446.726 173.657 452.626 172.28 459.234 172.28C465.37 172.28 470.759 173.539 475.4 176.056C480.12 178.495 483.7 182.113 486.138 186.912L474.81 193.52C472.922 190.531 470.602 188.328 467.848 186.912C465.174 185.496 462.263 184.788 459.116 184.788C455.498 184.788 452.233 185.575 449.322 187.148C446.412 188.721 444.13 191.003 442.478 193.992C440.826 196.903 440 200.403 440 204.494C440 208.585 440.826 212.125 442.478 215.114C444.13 218.025 446.412 220.267 449.322 221.84C452.233 223.413 455.498 224.2 459.116 224.2C462.263 224.2 465.174 223.492 467.848 222.076C470.602 220.66 472.922 218.457 474.81 215.468L486.138 222.076C483.7 226.796 480.12 230.454 475.4 233.05C470.759 235.567 465.37 236.826 459.234 236.826ZM527.585 236.826C520.584 236.826 514.448 235.449 509.177 232.696C503.985 229.864 499.934 226.009 497.023 221.132C494.191 216.255 492.775 210.709 492.775 204.494C492.775 198.201 494.152 192.655 496.905 187.856C499.737 182.979 503.592 179.163 508.469 176.41C513.425 173.657 519.05 172.28 525.343 172.28C531.479 172.28 536.946 173.617 541.745 176.292C546.544 178.967 550.32 182.743 553.073 187.62C555.826 192.497 557.203 198.24 557.203 204.848C557.203 205.477 557.164 206.185 557.085 206.972C557.085 207.759 557.046 208.506 556.967 209.214H504.457V199.42H549.179L543.397 202.488C543.476 198.869 542.728 195.683 541.155 192.93C539.582 190.177 537.418 188.013 534.665 186.44C531.99 184.867 528.883 184.08 525.343 184.08C521.724 184.08 518.538 184.867 515.785 186.44C513.11 188.013 510.986 190.216 509.413 193.048C507.918 195.801 507.171 199.066 507.171 202.842V205.202C507.171 208.978 508.036 212.321 509.767 215.232C511.498 218.143 513.936 220.385 517.083 221.958C520.23 223.531 523.848 224.318 527.939 224.318C531.479 224.318 534.665 223.767 537.497 222.666C540.329 221.565 542.846 219.834 545.049 217.474L552.955 226.56C550.123 229.864 546.544 232.421 542.217 234.23C537.969 235.961 533.092 236.826 527.585 236.826ZM598.039 236.826C591.982 236.826 586.515 235.489 581.637 232.814C576.839 230.061 573.063 226.285 570.309 221.486C567.556 216.687 566.179 211.023 566.179 204.494C566.179 197.965 567.556 192.301 570.309 187.502C573.063 182.703 576.839 178.967 581.637 176.292C586.515 173.617 591.982 172.28 598.039 172.28C603.31 172.28 608.03 173.46 612.199 175.82C616.369 178.101 619.673 181.602 622.111 186.322C624.55 191.042 625.769 197.099 625.769 204.494C625.769 211.81 624.589 217.867 622.229 222.666C619.869 227.386 616.605 230.926 612.435 233.286C608.266 235.646 603.467 236.826 598.039 236.826ZM599.809 224.2C603.349 224.2 606.496 223.413 609.249 221.84C612.081 220.267 614.323 217.985 615.975 214.996C617.706 212.007 618.571 208.506 618.571 204.494C618.571 200.403 617.706 196.903 615.975 193.992C614.323 191.003 612.081 188.721 609.249 187.148C606.496 185.575 603.349 184.788 599.809 184.788C596.269 184.788 593.083 185.575 590.251 187.148C587.498 188.721 585.256 191.003 583.525 193.992C581.873 196.903 581.047 200.403 581.047 204.494C581.047 208.506 581.873 212.007 583.525 214.996C585.256 217.985 587.498 220.267 590.251 221.84C593.083 223.413 596.269 224.2 599.809 224.2ZM618.925 236V221.132L619.515 204.376L618.335 187.62V148.444H632.967V236H618.925ZM44.092 380V297.4H78.076C85.392 297.4 91.646 298.58 96.838 300.94C102.109 303.3 106.16 306.683 108.992 311.088C111.824 315.493 113.24 320.725 113.24 326.782C113.24 332.839 111.824 338.071 108.992 342.476C106.16 346.881 102.109 350.264 96.838 352.624C91.646 354.984 85.392 356.164 78.076 356.164H52.588L59.432 348.966V380H44.092ZM59.432 350.618L52.588 343.184H77.368C84.1333 343.184 89.2073 341.768 92.59 338.936C96.0513 336.025 97.782 331.974 97.782 326.782C97.782 321.511 96.0513 317.46 92.59 314.628C89.2073 311.796 84.1333 310.38 77.368 310.38H52.588L59.432 302.828V350.618ZM164.049 316.28C169.084 316.28 173.568 317.263 177.501 319.23C181.513 321.197 184.66 324.225 186.941 328.316C189.222 332.328 190.363 337.52 190.363 343.892V380H175.613V345.78C175.613 340.195 174.276 336.025 171.601 333.272C169.005 330.519 165.347 329.142 160.627 329.142C157.166 329.142 154.098 329.85 151.423 331.266C148.748 332.682 146.664 334.806 145.169 337.638C143.753 340.391 143.045 343.892 143.045 348.14V380H128.295V292.444H143.045V333.98L139.859 328.788C142.062 324.776 145.248 321.708 149.417 319.584C153.665 317.381 158.542 316.28 164.049 316.28ZM213.114 403.718C210.046 403.718 206.978 403.207 203.91 402.184C200.842 401.161 198.285 399.745 196.24 397.936L202.14 387.08C203.635 388.417 205.326 389.479 207.214 390.266C209.102 391.053 211.029 391.446 212.996 391.446C215.671 391.446 217.834 390.777 219.486 389.44C221.138 388.103 222.672 385.861 224.088 382.714L227.746 374.454L228.926 372.684L252.762 316.988H266.922L237.422 385.074C235.455 389.794 233.253 393.531 230.814 396.284C228.454 399.037 225.779 400.965 222.79 402.066C219.879 403.167 216.654 403.718 213.114 403.718ZM226.094 382.242L197.656 316.988H212.996L236.124 371.386L226.094 382.242ZM294.804 380.826C289.534 380.826 284.46 380.157 279.582 378.82C274.784 377.404 270.968 375.713 268.136 373.746L273.8 362.536C276.632 364.345 280.015 365.84 283.948 367.02C287.882 368.2 291.815 368.79 295.748 368.79C300.39 368.79 303.733 368.161 305.778 366.902C307.902 365.643 308.964 363.952 308.964 361.828C308.964 360.097 308.256 358.799 306.84 357.934C305.424 356.99 303.576 356.282 301.294 355.81C299.013 355.338 296.456 354.905 293.624 354.512C290.871 354.119 288.078 353.607 285.246 352.978C282.493 352.27 279.976 351.287 277.694 350.028C275.413 348.691 273.564 346.921 272.148 344.718C270.732 342.515 270.024 339.605 270.024 335.986C270.024 331.974 271.165 328.513 273.446 325.602C275.728 322.613 278.914 320.331 283.004 318.758C287.174 317.106 292.09 316.28 297.754 316.28C302.002 316.28 306.29 316.752 310.616 317.696C314.943 318.64 318.522 319.977 321.354 321.708L315.69 332.918C312.701 331.109 309.672 329.889 306.604 329.26C303.615 328.552 300.626 328.198 297.636 328.198C293.152 328.198 289.809 328.867 287.606 330.204C285.482 331.541 284.42 333.233 284.42 335.278C284.42 337.166 285.128 338.582 286.544 339.526C287.96 340.47 289.809 341.217 292.09 341.768C294.372 342.319 296.889 342.791 299.642 343.184C302.474 343.499 305.267 344.01 308.02 344.718C310.774 345.426 313.291 346.409 315.572 347.668C317.932 348.848 319.82 350.539 321.236 352.742C322.652 354.945 323.36 357.816 323.36 361.356C323.36 365.289 322.18 368.711 319.82 371.622C317.539 374.533 314.274 376.814 310.026 378.466C305.778 380.039 300.704 380.826 294.804 380.826ZM336.063 380V316.988H350.813V380H336.063ZM343.497 306.604C340.743 306.604 338.462 305.739 336.653 304.008C334.922 302.277 334.057 300.193 334.057 297.754C334.057 295.237 334.922 293.152 336.653 291.5C338.462 289.769 340.743 288.904 343.497 288.904C346.25 288.904 348.492 289.73 350.223 291.382C352.032 292.955 352.937 294.961 352.937 297.4C352.937 299.996 352.071 302.199 350.341 304.008C348.61 305.739 346.329 306.604 343.497 306.604ZM398.492 380.826C392.041 380.826 386.299 379.449 381.264 376.696C376.229 373.864 372.257 370.009 369.346 365.132C366.435 360.255 364.98 354.709 364.98 348.494C364.98 342.201 366.435 336.655 369.346 331.856C372.257 326.979 376.229 323.163 381.264 320.41C386.299 317.657 392.041 316.28 398.492 316.28C405.021 316.28 410.803 317.657 415.838 320.41C420.951 323.163 424.924 326.939 427.756 331.738C430.667 336.537 432.122 342.122 432.122 348.494C432.122 354.709 430.667 360.255 427.756 365.132C424.924 370.009 420.951 373.864 415.838 376.696C410.803 379.449 405.021 380.826 398.492 380.826ZM398.492 368.2C402.111 368.2 405.336 367.413 408.168 365.84C411 364.267 413.203 361.985 414.776 358.996C416.428 356.007 417.254 352.506 417.254 348.494C417.254 344.403 416.428 340.903 414.776 337.992C413.203 335.003 411 332.721 408.168 331.148C405.336 329.575 402.15 328.788 398.61 328.788C394.991 328.788 391.766 329.575 388.934 331.148C386.181 332.721 383.978 335.003 382.326 337.992C380.674 340.903 379.848 344.403 379.848 348.494C379.848 352.506 380.674 356.007 382.326 358.996C383.978 361.985 386.181 364.267 388.934 365.84C391.766 367.413 394.952 368.2 398.492 368.2ZM469.945 380.826C463.022 380.826 457.673 379.056 453.897 375.516C450.121 371.897 448.233 366.587 448.233 359.586V303.064H462.983V359.232C462.983 362.221 463.73 364.542 465.225 366.194C466.798 367.846 468.961 368.672 471.715 368.672C475.019 368.672 477.772 367.807 479.975 366.076L484.105 376.578C482.374 377.994 480.25 379.056 477.733 379.764C475.215 380.472 472.619 380.826 469.945 380.826ZM437.849 329.26V317.46H479.857V329.26H437.849ZM531.993 316.28C537.027 316.28 541.511 317.263 545.445 319.23C549.457 321.197 552.603 324.225 554.885 328.316C557.166 332.328 558.307 337.52 558.307 343.892V380H543.557V345.78C543.557 340.195 542.219 336.025 539.545 333.272C536.949 330.519 533.291 329.142 528.571 329.142C525.109 329.142 522.041 329.85 519.367 331.266C516.692 332.682 514.607 334.806 513.113 337.638C511.697 340.391 510.989 343.892 510.989 348.14V380H496.239V292.444H510.989V333.98L507.803 328.788C510.005 324.776 513.191 321.708 517.361 319.584C521.609 317.381 526.486 316.28 531.993 316.28ZM606.751 380.826C599.75 380.826 593.614 379.449 588.343 376.696C583.151 373.864 579.1 370.009 576.189 365.132C573.357 360.255 571.941 354.709 571.941 348.494C571.941 342.201 573.318 336.655 576.071 331.856C578.903 326.979 582.758 323.163 587.635 320.41C592.591 317.657 598.216 316.28 604.509 316.28C610.645 316.28 616.112 317.617 620.911 320.292C625.71 322.967 629.486 326.743 632.239 331.62C634.992 336.497 636.369 342.24 636.369 348.848C636.369 349.477 636.33 350.185 636.251 350.972C636.251 351.759 636.212 352.506 636.133 353.214H583.623V343.42H628.345L622.563 346.488C622.642 342.869 621.894 339.683 620.321 336.93C618.748 334.177 616.584 332.013 613.831 330.44C611.156 328.867 608.049 328.08 604.509 328.08C600.89 328.08 597.704 328.867 594.951 330.44C592.276 332.013 590.152 334.216 588.579 337.048C587.084 339.801 586.337 343.066 586.337 346.842V349.202C586.337 352.978 587.202 356.321 588.933 359.232C590.664 362.143 593.102 364.385 596.249 365.958C599.396 367.531 603.014 368.318 607.105 368.318C610.645 368.318 613.831 367.767 616.663 366.666C619.495 365.565 622.012 363.834 624.215 361.474L632.121 370.56C629.289 373.864 625.71 376.421 621.383 378.23C617.135 379.961 612.258 380.826 606.751 380.826ZM650.537 380V316.988H664.579V334.334L662.927 329.26C664.815 325.012 667.765 321.787 671.777 319.584C675.868 317.381 680.942 316.28 686.999 316.28V330.322C686.37 330.165 685.78 330.086 685.229 330.086C684.679 330.007 684.128 329.968 683.577 329.968C677.992 329.968 673.547 331.62 670.243 334.924C666.939 338.149 665.287 342.987 665.287 349.438V380H650.537ZM733.84 380V367.256L733.014 364.542V342.24C733.014 337.913 731.716 334.57 729.12 332.21C726.524 329.771 722.59 328.552 717.32 328.552C713.78 328.552 710.279 329.103 706.818 330.204C703.435 331.305 700.564 332.839 698.204 334.806L692.422 324.068C695.804 321.472 699.816 319.545 704.458 318.286C709.178 316.949 714.055 316.28 719.09 316.28C728.215 316.28 735.256 318.483 740.212 322.888C745.246 327.215 747.764 333.941 747.764 343.066V380H733.84ZM714.016 380.826C709.296 380.826 705.166 380.039 701.626 378.466C698.086 376.814 695.332 374.572 693.366 371.74C691.478 368.829 690.534 365.565 690.534 361.946C690.534 358.406 691.36 355.22 693.012 352.388C694.742 349.556 697.535 347.314 701.39 345.662C705.244 344.01 710.358 343.184 716.73 343.184H735.02V352.978H717.792C712.757 352.978 709.374 353.804 707.644 355.456C705.913 357.029 705.048 358.996 705.048 361.356C705.048 364.031 706.11 366.155 708.234 367.728C710.358 369.301 713.308 370.088 717.084 370.088C720.702 370.088 723.928 369.262 726.76 367.61C729.67 365.958 731.755 363.519 733.014 360.294L735.492 369.144C734.076 372.841 731.519 375.713 727.822 377.758C724.203 379.803 719.601 380.826 714.016 380.826ZM801.622 380.826C796.508 380.826 791.828 379.646 787.58 377.286C783.41 374.926 780.067 371.386 777.55 366.666C775.111 361.867 773.892 355.81 773.892 348.494C773.892 341.099 775.072 335.042 777.432 330.322C779.87 325.602 783.174 322.101 787.344 319.82C791.513 317.46 796.272 316.28 801.622 316.28C807.836 316.28 813.304 317.617 818.024 320.292C822.822 322.967 826.598 326.703 829.352 331.502C832.184 336.301 833.6 341.965 833.6 348.494C833.6 355.023 832.184 360.727 829.352 365.604C826.598 370.403 822.822 374.139 818.024 376.814C813.304 379.489 807.836 380.826 801.622 380.826ZM766.694 402.892V316.988H780.736V331.856L780.264 348.612L781.444 365.368V402.892H766.694ZM799.97 368.2C803.51 368.2 806.656 367.413 809.41 365.84C812.242 364.267 814.484 361.985 816.136 358.996C817.788 356.007 818.614 352.506 818.614 348.494C818.614 344.403 817.788 340.903 816.136 337.992C814.484 335.003 812.242 332.721 809.41 331.148C806.656 329.575 803.51 328.788 799.97 328.788C796.43 328.788 793.244 329.575 790.412 331.148C787.58 332.721 785.338 335.003 783.686 337.992C782.034 340.903 781.208 344.403 781.208 348.494C781.208 352.506 782.034 356.007 783.686 358.996C785.338 361.985 787.58 364.267 790.412 365.84C793.244 367.413 796.43 368.2 799.97 368.2ZM851.052 403.718C847.984 403.718 844.916 403.207 841.848 402.184C838.78 401.161 836.223 399.745 834.178 397.936L840.078 387.08C841.572 388.417 843.264 389.479 845.152 390.266C847.04 391.053 848.967 391.446 850.934 391.446C853.608 391.446 855.772 390.777 857.424 389.44C859.076 388.103 860.61 385.861 862.026 382.714L865.684 374.454L866.864 372.684L890.7 316.988H904.86L875.36 385.074C873.393 389.794 871.19 393.531 868.752 396.284C866.392 399.037 863.717 400.965 860.728 402.066C857.817 403.167 854.592 403.718 851.052 403.718ZM864.032 382.242L835.594 316.988H850.934L874.062 371.386L864.032 382.242Z" fill="black"/>
</g>
<defs>
<clipPath id="clip0_2_2">
<rect width="1096" height="409" fill="white"/>
</clipPath>
</defs>
</svg>
